<svg width="301" height="41" viewBox="0 0 301 41" fill="none" xmlns="http://www.w3.org/2000/svg">
<g clip-path="url(#clip0_8_67)">
<path d="M98.637 33.478C98.637 33.5932 98.5432 33.6866 98.428 33.6866H90.105C89.9898 33.6866 89.8961 33.5932 89.8961 33.478V2.73386C89.8961 2.61861 89.9898 2.52519 90.105 2.52519H98.428C98.5432 2.52519 98.637 2.61861 98.637 2.73386V33.478ZM101.303 0.328394H87.8576C87.3587 0.328394 86.9541 0.733121 86.9541 1.23173V40.0967C86.9541 40.5953 87.3587 41 87.8576 41H101.303C101.802 41 102.206 40.5953 102.206 40.0967V1.23173C102.206 0.733121 101.802 0.328394 101.303 0.328394Z" fill="#f9f8f6"/>
<path d="M160.214 2.88131L156.974 6.12024C156.935 6.15948 156.882 6.18145 156.826 6.18145H122.156C121.051 6.18145 120.008 6.61163 119.222 7.39291L118.111 8.5043C117.292 9.32297 116.832 10.4336 116.832 11.5916V19.2627C116.832 19.378 116.925 19.4714 117.041 19.4714H143.116C143.302 19.4714 143.395 19.6961 143.264 19.8275L140.024 23.0666C139.985 23.1059 139.932 23.1279 139.876 23.1279H117.041C116.925 23.1279 116.832 23.2213 116.832 23.3366V33.478C116.832 33.5932 116.739 33.6866 116.623 33.6866H108.3C108.185 33.6866 108.091 33.5932 108.091 33.478V9.17853C108.091 9.12311 108.113 9.0701 108.153 9.03087L114.598 2.58619C114.637 2.54716 114.69 2.52519 114.745 2.52519H160.066C160.252 2.52519 160.345 2.74983 160.214 2.88131ZM166.564 0.328394H113.997C113.758 0.328394 113.528 0.423457 113.359 0.593501L105.415 8.53748C105.245 8.70676 105.15 8.93663 105.15 9.17592V40.0967C105.15 40.5953 105.555 41 106.053 41H119.498C119.997 41 120.402 40.5953 120.402 40.0967V28.3457C120.402 27.8471 120.805 27.4426 121.305 27.4426H141.25C141.49 27.4426 141.72 27.3475 141.889 27.1785L150.253 18.8163C150.822 18.2474 150.418 17.2748 149.614 17.2748H121.305C120.805 17.2748 120.402 16.8703 120.402 16.3717V12.5647C120.402 12.3254 120.496 12.0956 120.665 11.9265L121.831 10.7611C122.001 10.592 122.231 10.496 122.47 10.496H158.201C158.44 10.496 158.67 10.4012 158.839 10.2321L167.203 1.86996C167.772 1.30195 167.368 0.328394 166.564 0.328394Z" fill="#f9f8f6"/>
<path d="M76.5404 2.87952L71.7285 7.81382C71.6891 7.85408 71.6353 7.87687 71.5789 7.87687H46.3204C46.2051 7.87687 46.1116 7.97029 46.1116 8.08554V33.478C46.1116 33.5932 46.0182 33.6866 45.903 33.6866H37.5796C37.4646 33.6866 37.3712 33.5932 37.3712 33.478V8.08554C37.3712 7.97029 37.2777 7.87687 37.1625 7.87687H11.9166C11.8601 7.87687 11.8063 7.85408 11.7671 7.81382L6.96219 2.87931C6.83353 2.74707 6.92721 2.52519 7.11165 2.52519H76.3914C76.5758 2.52519 76.6695 2.74727 76.5404 2.87952ZM82.7809 0.328394H1.35621C0.557328 0.328394 0.151784 1.28976 0.709382 1.86135L10.5018 11.9179C10.6719 12.0927 10.9054 12.1916 11.1497 12.1916H33.526C34.0246 12.1916 34.4293 12.5951 34.4293 13.0937V40.0967C34.4293 40.5953 34.8329 41 35.3317 41H48.778C49.2766 41 49.6811 40.5953 49.6811 40.0967V13.0937C49.6811 12.5951 50.0849 12.1916 50.5835 12.1916H72.9731C73.2164 12.1916 73.4489 12.0927 73.619 11.9189L83.4267 1.86233C83.985 1.29073 83.5799 0.328394 82.7809 0.328394Z" fill="#f9f8f6"/>
<path d="M218.676 2.88131L215.436 6.12024C215.397 6.15948 215.344 6.18145 215.289 6.18145H180.619C179.513 6.18145 178.471 6.61163 177.684 7.39291L176.574 8.50388C175.755 9.32276 175.295 10.4338 175.295 11.5922V19.2627C175.295 19.378 175.388 19.4714 175.503 19.4714H201.578C201.764 19.4714 201.857 19.6961 201.726 19.8275L198.486 23.0666C198.447 23.1059 198.394 23.1279 198.339 23.1279H175.503C175.388 23.1279 175.295 23.2213 175.295 23.3366V33.478C175.295 33.5932 175.201 33.6866 175.086 33.6866H166.763C166.647 33.6866 166.554 33.5932 166.554 33.478V9.17853C166.554 9.12311 166.576 9.0701 166.615 9.03087L173.06 2.58619C173.099 2.54716 173.152 2.52519 173.207 2.52519H218.528C218.714 2.52519 218.807 2.74983 218.676 2.88131ZM224.201 0.328394H171.633C171.393 0.328394 171.164 0.423457 170.995 0.593501L163.05 8.53748C162.881 8.70676 162.787 8.93663 162.787 9.17592V40.0967C162.787 40.5953 163.19 41 163.689 41H177.134C177.634 41 178.037 40.5953 178.037 40.0967V28.3457C178.037 27.8471 178.442 27.4426 178.941 27.4426H198.887C199.126 27.4426 199.356 27.3475 199.525 27.1785L207.889 18.8163C208.458 18.2474 208.055 17.2748 207.251 17.2748H178.941C178.442 17.2748 178.037 16.8703 178.037 16.3717V12.5647C178.037 12.3254 178.133 12.0956 178.303 11.9265L179.468 10.7611C179.637 10.592 179.867 10.496 180.106 10.496H215.837C216.076 10.496 216.306 10.4012 216.475 10.2321L224.839 1.86996C225.408 1.30195 225.005 0.328394 224.201 0.328394Z" fill="#f9f8f6"/>
<path d="M296.881 33.478C296.881 33.5932 296.788 33.6866 296.673 33.6866H288.35C288.234 33.6866 288.141 33.5932 288.141 33.478V13.2009C288.141 12.0944 287.711 11.0522 286.93 10.2669L285.758 9.09428C284.967 8.307 283.924 7.87687 282.816 7.87687H263.316C262.158 7.87687 261.048 8.33645 260.229 9.15471L259.124 10.2587C258.336 11.0522 257.906 12.0944 257.906 13.2009V33.478C257.906 33.5932 257.812 33.6866 257.697 33.6866H249.374C249.258 33.6866 249.165 33.5932 249.165 33.478V9.17853C249.165 9.12311 249.187 9.0701 249.226 9.03087L255.671 2.58619C255.71 2.54716 255.763 2.52519 255.818 2.52519H290.229C290.285 2.52519 290.337 2.54716 290.377 2.58619L296.821 9.03066C296.859 9.0699 296.881 9.12291 296.881 9.17833V33.478ZM300.186 8.53748L292.243 0.593501C292.073 0.423457 291.843 0.328394 291.603 0.328394H255.071C254.831 0.328394 254.601 0.423457 254.432 0.593501L246.488 8.53748C246.318 8.70676 246.223 8.93663 246.223 9.17592V40.0967C246.223 40.5953 246.628 41 247.126 41H260.571C261.07 41 261.475 40.5953 261.475 40.0967V14.2601C261.475 14.0198 261.57 13.791 261.739 13.6209L262.905 12.4555C263.074 12.2864 263.304 12.1916 263.544 12.1916H283.13C283.371 12.1916 283.6 12.2864 283.77 12.4555L284.935 13.6209C285.104 13.791 285.199 14.0198 285.199 14.2601V40.0967C285.199 40.5953 285.604 41 286.102 41H299.548C300.046 41 300.451 40.5953 300.451 40.0967V9.17592C300.451 8.93663 300.356 8.70676 300.186 8.53748Z" fill="#f9f8f6"/>
<path d="M239.667 33.478C239.667 33.5932 239.574 33.6866 239.459 33.6866H231.136C231.021 33.6866 230.928 33.5932 230.928 33.478V2.73386C230.928 2.61861 231.021 2.52519 231.136 2.52519H239.459C239.574 2.52519 239.667 2.61861 239.667 2.73386V33.478ZM242.334 0.328394H228.888C228.389 0.328394 227.986 0.733121 227.986 1.23173V40.0967C227.986 40.5953 228.389 41 228.888 41H242.334C242.832 41 243.237 40.5953 243.237 40.0967V1.23173C243.237 0.733121 242.832 0.328394 242.334 0.328394Z" fill="#f9f8f6"/>
</g>
<defs>
<clipPath id="clip0_8_67">
<rect width="300" height="40.6723" fill="#f9f8f6" transform="translate(0.451294 0.327637)"/>
</clipPath>
</defs>
</svg>
